 Hidalgo 2004 BRRip H264 AAC-Rx(Phoenix-RG).mp4
      Format : MPEG-4 /AVC
      File size : 2.21 GiB
      Duration : 2h 16mn
      Format profile : High@L4.1
      Bit rate : 2 000 Kbps
      Width : 1 280 pixels
      Height : 528 pixels
      Display aspect ratio : 2.424
      Frame rate : 23.976 fps
      Resolution : 24 bits
      Colorimetry : 4:2:0
      Scan type : Progressive
      Bits/(Pixel*Frame) : 0.123
      Stream size : 1.90 GiB (86%)
      
AUDIO:
      Format : AAC / LC
      Format/Info : Advanced Audio Codec
      Duration : 2h 16mn
      Bit rate : 321 Kbps
      Channel(s) : 6 channels
      Channel positions : Front: L C R, Rear: L R, LFE
      Sampling rate : 48.0 KHz
      Resolution : 16 bits
      Stream size : 313 MiB (14%)

SCREEN:
 
http://img832.imageshack.us/img832/4089/vlcsnap2010082708h34m03.jpg
 
http://img834.imageshack.us/img834/3640/vlcsnap2010082708h31m27.jpg
 
http://img831.imageshack.us/img831/9585/vlcsnap2010082708h34m25.jpg